<svg width="100" height="100" viewBox="0 0 100 100" fill="none" xmlns="http://www.w3.org/2000/svg">
  <defs>
    <linearGradient id="logo-gradient" x1="0%" y1="0%" x2="100%" y2="100%">
      <stop offset="0%" style="stop-color:#8b5cf6" />
      <stop offset="50%" style="stop-color:#3b82f6" />
      <stop offset="100%" style="stop-color:#06b6d4" />
    </linearGradient>
    <linearGradient id="logo-accent" x1="0%" y1="0%" x2="100%" y2="0%">
      <stop offset="0%" style="stop-color:#f59e0b" />
      <stop offset="100%" style="stop-color:#ef4444" />
    </linearGradient>
  </defs>

  <!-- Main M shape - MetaTool -->
  <path
    d="M 15 75 L 15 35 C 15 30 17 28 21 28 C 23 28 25 29 26 31 L 35 55 L 44 31 C 45 29 47 28 49 28 C 53 28 55 30 55 35 L 55 75"
    stroke="url(#logo-gradient)"
    stroke-width="6"
    stroke-linecap="round"
    stroke-linejoin="round"
    fill="none"
  />

  <!-- Tool/Wrench element -->
  <circle
    cx="72"
    cy="38"
    r="12"
    stroke="url(#logo-accent)"
    stroke-width="5"
    fill="none"
  />
  <path
    d="M 72 50 L 72 68 C 72 71 73.5 72.5 76 72.5 C 78.5 72.5 80 71 80 68 L 80 58"
    stroke="url(#logo-accent)"
    stroke-width="5"
    stroke-linecap="round"
    fill="none"
  />
  <circle
    cx="80"
    cy="54"
    r="4"
    fill="url(#logo-accent)"
  />

  <!-- Accent elements -->
  <circle cx="35" cy="75" r="3" fill="url(#logo-gradient)" opacity="0.8" />
  <circle cx="15" cy="35" r="3" fill="url(#logo-gradient)" opacity="0.8" />
  <circle cx="72" cy="38" r="3" fill="#ffffff" opacity="0.6" />
</svg>
